{
  "accessors": [
    {
      "bufferView": 2,
      "componentType": 5126,
      "count": 7384,
      "max": [
        0.18376782536506653,
        0.8814984560012817,
        0.44843587279319763
      ],
      "min": [
        -0.18315184116363525,
        -0.0009022935992106795,
        -0.44854778051376343
      ],
      "type": "VEC3"
    },
    {
      "bufferView": 2,
      "byteOffset": 88608,
      "componentType": 5126,
      "count": 7384,
      "max": [
        0.9999501705169678,
        0.9994661808013916,
        0.999980092048645
      ],
      "min": [
        -0.9997991323471069,
        -0.9994127750396729,
        -0.9999116659164429
      ],
      "type": "VEC3"
    },
    {
      "bufferView": 3,
      "componentType": 5126,
      "count": 7384,
      "max": [
        0.9999708533287048,
        0.9999544620513916,
        0.9997947812080383,
        1.0
      ],
      "min": [
        -0.9991723895072937,
        -0.9999883770942688,
        -0.9999908208847046,
        -1.0
      ],
      "type": "VEC4"
    },
    {
      "bufferView": 1,
      "componentType": 5126,
      "count": 7384,
      "max": [
        0.9983181953430176,
        0.9964309930801392
      ],
      "min": [
        0.0009746457217261195,
        0.0009746463620103896
      ],
      "type": "VEC2"
    },
    {
      "bufferView": 1,
      "byteOffset": 59072,
      "componentType": 5126,
      "count": 7384,
      "max": [
        0.9983181953430176,
        0.9964309930801392
      ],
      "min": [
        0.0009746457217261195,
        0.0009746463620103896
      ],
      "type": "VEC2"
    },
    {
      "bufferView": 0,
      "componentType": 5125,
      "count": 30348,
      "type": "SCALAR"
    }
  ],
  "asset": {
    "extras": {
      "author": "David Wigforss (https://sketchfab.com/dwigfor)",
      "license": "CC-BY-NC-4.0 (http://creativecommons.org/licenses/by-nc/4.0/)",
      "source": "https://sketchfab.com/3d-models/husky-standing-5876ccde9a4b4a52abb0d054aa21b28e",
      "title": "Husky (Standing)"
    },
    "generator": "Sketchfab-12.66.0",
    "version": "2.0"
  },
  "bufferViews": [
    {
      "buffer": 0,
      "byteLength": 121392,
      "name": "floatBufferViews",
      "target": 34963
    },
    {
      "buffer": 0,
      "byteLength": 118144,
      "byteOffset": 121392,
      "byteStride": 8,
      "name": "floatBufferViews",
      "target": 34962
    },
    {
      "buffer": 0,
      "byteLength": 177216,
      "byteOffset": 239536,
      "byteStride": 12,
      "name": "floatBufferViews",
      "target": 34962
    },
    {
      "buffer": 0,
      "byteLength": 118144,
      "byteOffset": 416752,
      "byteStride": 16,
      "name": "floatBufferViews",
      "target": 34962
    }
  ],
  "buffers": [
    {
      "byteLength": 534896,
      "uri": "scene.bin"
    }
  ],
  "images": [
    {
      "uri": "textures/MAT_Dog_Husky_Standing_baseColor.jpeg"
    },
    {
      "uri": "textures/MAT_Dog_Husky_Standing_normal.png"
    }
  ],
  "materials": [
    {
      "doubleSided": true,
      "name": "MAT_Dog_Husky_Standing",
      "normalTexture": {
        "index": 1
      },
      "pbrMetallicRoughness": {
        "baseColorTexture": {
          "index": 0
        },
        "metallicFactor": 0.0,
        "roughnessFactor": 0.9577051495
      }
    }
  ],
  "meshes": [
    {
      "name": "geo1_MAT_Dog_Husky_Standing_0",
      "primitives": [
        {
          "attributes": {
            "NORMAL": 1,
            "POSITION": 0,
            "TANGENT": 2,
            "TEXCOORD_0": 3,
            "TEXCOORD_1": 4
          },
          "indices": 5,
          "material": 0,
          "mode": 4
        }
      ]
    }
  ],
  "nodes": [
    {
      "children": [
        1
      ],
      "matrix": [
        1.0,
        0.0,
        0.0,
        0.0,
        0.0,
        2.220446049250313e-16,
        -1.0,
        0.0,
        0.0,
        1.0,
        2.220446049250313e-16,
        0.0,
        0.0,
        0.0,
        0.0,
        1.0
      ],
      "name": "Sketchfab_model"
    },
    {
      "children": [
        2
      ],
      "matrix": [
        1.0,
        0.0,
        0.0,
        0.0,
        0.0,
        0.0,
        1.0,
        0.0,
        0.0,
        -1.0,
        0.0,
        0.0,
        0.0,
        0.0,
        0.0,
        1.0
      ],
      "name": "mesh.fbx"
    },
    {
      "children": [
        3
      ],
      "name": "RootNode"
    },
    {
      "children": [
        4
      ],
      "name": "geo1"
    },
    {
      "mesh": 0,
      "name": "geo1_MAT_Dog_Husky_Standing_0"
    }
  ],
  "samplers": [
    {
      "magFilter": 9729,
      "minFilter": 9987,
      "wrapS": 10497,
      "wrapT": 10497
    }
  ],
  "scene": 0,
  "scenes": [
    {
      "name": "Sketchfab_Scene",
      "nodes": [
        0
      ]
    }
  ],
  "textures": [
    {
      "sampler": 0,
      "source": 0
    },
    {
      "sampler": 0,
      "source": 1
    }
  ]
}
